#!OML:ASF X:\für Bonn\!DataBase\2005_08_11_Bastian_Final\c3d\Bastian.ASF
:FULLY-SPECIFIED
:DEGREES
153
root -2.58213 16.8994 -6.80525 145.832 107.389 -574.421
lowerback 8.91766 -2.54015 0.820528
upperback 5.89344 -3.13691 1.50417
thorax 1.15489 -1.50103 1.33423
lowerneck -6.29325 6.68249 -7.09414
upperneck -4.29261 9.46155 2.578
head -0.771509 4.86973 2.08677
rclavicle 4.55217e-014 -3.89618e-014
rhumerus -55.6004 2.94548 -76.4213
rradius 31.7512
rwrist 4.00185
rhand -19.5719 9.03985
rfingers 7.12502
rthumb 6.7531 -20.8325
lclavicle 4.55217e-014 -3.89618e-014
lhumerus -22.2221 -23.728 93.797
lradius 103.375
lwrist 221.523
lhand -34.212 13.9598
lfingers 7.12502
lthumb -7.38424 43.8109
rfemur -42.2257 -3.43565 20.372
rtibia 87.9826
rfoot -20.451 -7.23047
rtoes -8.88055
lfemur 5.53076 -5.62661 -24.7829
ltibia 36.4655
lfoot -11.6877 -13.3246
ltoes 17.9795
154
root -2.27253 17.0182 -6.69623 144.736 107.041 -575.942
lowerback 8.10895 -2.74088 1.08474
upperback 5.70196 -3.41456 1.68547
thorax 1.39997 -1.64078 1.35968
lowerneck -6.03212 6.79377 -7.38547
upperneck -4.13631 9.59786 2.4942
head -0.783907 4.9348 2.10146
rclavicle -2.78299e-014 -4.77083e-015
rhumerus -57.1964 2.97896 -76.0558
rradius 33.4155
rwrist 3.8533
rhand -19.1471 9.78731
rfingers 7.12502
rthumb 7.16321 -20.0715
lclavicle -2.78299e-014 -4.77083e-015
lhumerus -22.092 -23.9504 93.9247
lradius 104.091
lwrist 222.368
lhand -34.2478 14.3508
lfingers 7.12502
lthumb -7.41875 44.2008
rfemur -42.4298 -3.31138 20.5743
rtibia 84.6823
rfoot -20.7262 -6.73369
rtoes -10.2831
lfemur 6.56252 -6.19575 -24.6587
ltibia 35.5559
lfoot -9.35224 -12.1655
ltoes 13.5582
155
root -1.95938 17.1457 -6.58837 143.542 106.727 -577.749
lowerback 7.10184 -2.93765 1.4008
upperback 5.49643 -3.69672 1.89211
thorax 1.73965 -1.78147 1.36698
lowerneck -5.86703 6.90704 -7.61626
upperneck -3.97504 9.74035 2.38073
head -0.774281 5.00291 2.10005
rclavicle -1.68967e-014 4.77083e-015
rhumerus -58.7093 3.03047 -75.8002
rradius 35.1872
rwrist 3.63245
rhand -18.7355 10.3522
rfingers 7.12502
rthumb 7.56046 -19.4927
lclavicle -1.68967e-014 4.77083e-015
lhumerus -21.9887 -24.0987 93.9758
lradius 104.759
lwrist 222.99
lhand -34.1926 15.0753
lfingers 7.12502
lthumb -7.36551 44.9271
rfemur -42.6086 -3.17791 20.868
rtibia 81.1104
rfoot -20.9983 -6.23883
rtoes -11.7768
lfemur 7.08259 -6.69289 -24.3854
ltibia 35.0713
lfoot -6.9524 -11.1638
ltoes 8.07242
156
root -1.64431 17.2804 -6.48057 142.237 106.434 -579.62
lowerback 6.11497 -3.12064 1.68926
upperback 5.34724 -3.96769 2.10308
thorax 2.13054 -1.91504 1.3863
lowerneck -5.83248 6.9982 -7.79521
upperneck -3.78487 9.86107 2.23029
head -0.727444 5.05978 2.08422
rclavicle -2.52457e-014 -4.77083e-015
rhumerus -60.1016 3.16515 -75.69
rradius 37.05
rwrist 3.291
rhand -18.3667 10.6861
rfingers 7.12502
rthumb 7.91641 -19.1457
lclavicle -2.52457e-014 -4.77083e-015
lhumerus -21.807 -24.1857 93.9558
lradius 105.303
lwrist 223.448
lhand -34.0647 15.9275
lfingers 7.12502
lthumb -7.24206 45.7836
rfemur -42.5152 -3.00858 21.1617
rtibia 77.3011
rfoot -21.3261 -5.7858
rtoes -13.1149
lfemur 7.37083 -7.05251 -24.058
ltibia 34.9756
lfoot -4.62315 -10.293
ltoes 2.8235
157
root -1.33116 17.4077 -6.37547 140.649 106.209 -581.505
lowerback 5.39108 -3.29186 1.99276
upperback 5.31911 -4.21649 2.30113
thorax 2.50065 -2.03288 1.38918
lowerneck -5.86792 7.09015 -7.90169
upperneck -3.62952 9.98575 2.0243
head -0.673035 5.11895 2.04042
rclavicle 1.80894e-014 -1.98785e-014
rhumerus -61.4062 3.32308 -75.6952
rradius 39.0784
rwrist 2.90033
rhand -18.0676 10.6963
rfingers 7.12502
rthumb 8.20511 -19.1244
lclavicle 1.80894e-014 -1.98785e-014
lhumerus -21.5595 -24.1879 93.7921
lradius 105.697
lwrist 223.71
lhand -33.903 16.8951
lfingers 7.12502
lthumb -7.08596 46.7565
rfemur -41.9529 -2.73531 21.4247
rtibia 73.3024
rfoot -21.7621 -5.33473
rtoes -14.3498
lfemur 7.74031 -7.21389 -23.7299
ltibia 35.2826
lfoot -2.65854 -9.4575
ltoes -2.33995
158
root -1.02006 17.5253 -6.27434 139.069 106.038 -583.143
lowerback 4.94981 -3.44655 2.26936
upperback 5.34011 -4.43534 2.47514
thorax 2.76481 -2.13424 1.39356
lowerneck -5.93105 7.18346 -8.00935
upperneck -3.46422 10.1156 1.80504
head -0.610316 5.18028 1.9943
rclavicle -3.29983e-014 3.4191e-014
rhumerus -62.6543 3.4585 -75.687
rradius 41.1472
rwrist 2.66771
rhand -17.8248 10.5844
rfingers 7.12502
rthumb 8.43941 -19.227
lclavicle -3.29983e-014 3.4191e-014
lhumerus -21.3947 -24.0398 93.637
lradius 105.821
lwrist 223.791
lhand -33.8078 17.9132
lfingers 7.12502
lthumb -6.99399 47.7777
rfemur -41.012 -2.43512 21.6422
rtibia 69.1828
rfoot -22.2501 -4.9471
rtoes -16.3319
lfemur 8.15357 -7.16225 -23.4647
ltibia 35.9897
lfoot -1.05126 -8.62678
ltoes -6.69229
159
root -0.71183 17.6284 -6.17521 137.379 105.886 -584.832
lowerback 4.59229 -3.58763 2.57074
upperback 5.38277 -4.63413 2.64381
thorax 3.00232 -2.22327 1.38097
lowerneck -5.98707 7.26575 -8.08414
upperneck -3.33358 10.2297 1.57435
head -0.556431 5.23399 1.93813
rclavicle 1.80894e-014 2.06736e-014
rhumerus -63.868 3.8344 -75.931
rradius 43.2517
rwrist 2.14374
rhand -17.8182 10.3495
rfingers 7.12502
rthumb 8.44575 -19.4616
lclavicle 1.80894e-014 2.06736e-014
lhumerus -21.265 -23.8299 93.4701
lradius 105.872
lwrist 223.704
lhand -33.7915 18.7672
lfingers 7.12502
lthumb -6.9783 48.6321
rfemur -39.8563 -2.12255 21.8902
rtibia 64.961
rfoot -22.7322 -4.76773
rtoes -18.8517
lfemur 8.40009 -6.96584 -23.1614
ltibia 37.1307
lfoot 0.101456 -7.86967
ltoes -10.4061
160
root -0.407277 17.7121 -6.07812 135.683 105.734 -586.469
lowerback 4.3217 -3.73888 2.83665
upperback 5.43724 -4.84532 2.82506
thorax 3.20749 -2.31906 1.40504
lowerneck -6.1034 7.34969 -8.29785
upperneck -3.19771 10.3615 1.39404
head -0.502164 5.29824 1.92469
rclavicle 3.04141e-014 -1.35174e-014
rhumerus -65.0201 4.16596 -76.0705
rradius 45.3897
rwrist 1.82628
rhand -17.837 10.1871
rfingers 7.12502
rthumb 8.42761 -19.6247
lclavicle 3.04141e-014 -1.35174e-014
lhumerus -21.2013 -23.4848 93.3493
lradius 106.066
lwrist 223.427
lhand -33.7474 18.9561
lfingers 7.12502
lthumb -6.93573 48.8225
rfemur -38.5257 -1.7334 22.0483
rtibia 60.6617
rfoot -23.1978 -4.5724
rtoes -20.4443
lfemur 8.49021 -6.98371 -23.0238
ltibia 38.7372
lfoot 0.628027 -6.81093
ltoes -13.5022
161
root -0.109039 17.7768 -5.98452 134.137 105.664 -587.91
lowerback 4.14932 -3.8389 3.17218
upperback 5.50124 -4.98219 2.95649
thorax 3.35672 -2.37362 1.34397
lowerneck -6.19607 7.41337 -8.42949
upperneck -3.08372 10.4609 1.22737
head -0.453344 5.34561 1.90045
rclavicle -7.15625e-015 1.11319e-014
rhumerus -66.1975 4.29326 -76.1309
rradius 47.5716
rwrist 1.82735
rhand -17.9287 10.2105
rfingers 7.12502
rthumb 8.33916 -19.6049
lclavicle -7.15625e-015 1.11319e-014
lhumerus -21.1933 -23.1162 93.2243
lradius 106.262
lwrist 222.969
lhand -33.8109 18.7762
lfingers 7.12502
lthumb -6.99698 48.6406
rfemur -37.0608 -1.20991 22.1549
rtibia 56.325
rfoot -23.5738 -4.40628
rtoes -21.1836
lfemur 8.3526 -6.78324 -22.8346
ltibia 40.8162
lfoot 0.667327 -5.81459
ltoes -15.862
162
root 0.18381 17.8242 -5.89323 132.588 105.661 -589.291
lowerback 4.08642 -3.93657 3.5485
upperback 5.57367 -5.10897 3.09524
thorax 3.45032 -2.42112 1.27523
lowerneck -6.28117 7.49329 -8.57947
upperneck -2.99252 10.5831 1.04523
head -0.414314 5.40494 1.87338
rclavicle 3.39922e-014 -2.54444e-014
rhumerus -67.3276 4.3645 -76.0898
rradius 49.7535
rwrist 2.08694
rhand -18.0267 10.4485
rfingers 7.12502
rthumb 8.2446 -19.3706
lclavicle 3.39922e-014 -2.54444e-014
lhumerus -21.2849 -22.598 93.1321
lradius 106.359
lwrist 222.387
lhand -34.0345 18.263
lfingers 7.12502
lthumb -7.21287 48.1201
rfemur -35.4908 -0.647345 22.2885
rtibia 52.0062
rfoot -23.831 -4.22076
rtoes -21.5732
lfemur 8.03923 -6.40896 -22.5603
ltibia 43.3233
lfoot 0.116342 -4.89935
ltoes -17.3271
163
root 0.478152 17.861 -5.80145 131.078 105.677 -590.628
lowerback 3.99996 -4.02397 3.91423
upperback 5.66884 -5.22526 3.24456
thorax 3.58242 -2.46234 1.22078
lowerneck -6.30341 7.57088 -8.84671
upperneck -3.02724 10.7045 0.925808
head -0.436021 5.46925 1.87928
rclavicle 8.22969e-014 -2.22639e-014
rhumerus -68.3945 4.41884 -75.9817
rradius 51.9401
rwrist 2.52083
rhand -18.1432 10.9157
rfingers 7.12502
rthumb 8.13213 -18.9078
lclavicle 8.22969e-014 -2.22639e-014
lhumerus -21.4279 -22.0033 93.1103
lradius 106.362
lwrist 221.653
lhand -34.2741 17.5085
lfingers 7.12502
lthumb -7.44411 47.3575
rfemur -33.9015 -0.00825814 22.4418
rtibia 47.7941
rfoot -23.6685 -4.06855
rtoes -22.5191
lfemur 7.53047 -5.96914 -22.2495
ltibia 46.2021
lfoot -0.916357 -4.12155
ltoes -16.6757
164
root 0.773674 17.8861 -5.70844 129.459 105.661 -592.002
lowerback 3.93044 -4.11098 4.30228
upperback 5.80971 -5.34067 3.33279
thorax 3.74466 -2.49888 1.09114
lowerneck -6.24677 7.63746 -9.11554
upperneck -3.1609 10.8033 0.869844
head -0.505338 5.52594 1.89897
rclavicle 5.14852e-014 -3.97569e-015
rhumerus -69.4175 4.35273 -75.8655
rradius 54.1302
rwrist 3.17576
rhand -18.2743 11.598
rfingers 7.12502
rthumb 8.00559 -18.2304
lclavicle 5.14852e-014 -3.97569e-015
lhumerus -21.6044 -21.4114 93.0069
lradius 106.22
lwrist 220.847
lhand -34.5333 16.7621
lfingers 7.12502
lthumb -7.69436 46.6021
rfemur -32.2189 0.758306 22.5441
rtibia 43.7747
rfoot -23.3453 -3.89577
rtoes -24.1109
lfemur 6.91494 -5.45007 -21.9245
ltibia 49.3748
lfoot -2.1406 -3.53215
ltoes -16.3048
165
root 1.06919 17.8976 -5.61207 127.644 105.629 -593.553
lowerback 3.87532 -4.21236 4.65815
upperback 5.95062 -5.47576 3.44744
thorax 3.90373 -2.54595 1.00784
lowerneck -6.17846 7.7114 -9.4068
upperneck -3.30093 10.9116 0.836477
head -0.582288 5.58825 1.92863
rclavicle -1.45113e-014 0
rhumerus -70.3734 4.33123 -75.7407
rradius 56.3432
rwrist 3.91205
rhand -18.4 12.2917
rfingers 7.12502
rthumb 7.88431 -17.5413
lclavicle -1.45113e-014 0
lhumerus -21.8724 -20.7129 93.006
lradius 105.934
lwrist 219.97
lhand -34.8081 16.0514
lfingers 7.12502
lthumb -7.95956 45.8815
rfemur -30.5211 1.59057 22.6379
rtibia 40.0471
rfoot -23.1428 -3.71326
rtoes -25.4976
lfemur 6.18924 -4.9387 -21.565
ltibia 52.7653
lfoot -3.31738 -3.02829
ltoes -16.7028
